<svg class="brxe-svg" id="brxe-izngzu" xmlns="http://www.w3.org/2000/svg" width="964" height="91" viewBox="0 0 964 91" fill="none" style="fill: none !important;"><g id="diego-serrano-logotipo" style="fill: none !important;"><path id="Vector" d="M59.3203 80.3599C61.4103 80.3599 63.1103 82.0599 63.1103 84.1499C63.1103 86.2399 61.4103 87.9399 59.3203 87.9399C57.2303 87.9399 55.5303 86.2399 55.5303 84.1499C55.5303 82.0599 57.2303 80.3599 59.3203 80.3599Z" fill="#E9E7E3" style="fill: rgb(233, 231, 227) !important;"/><path id="Vector_2" d="M70.9304 84.9502C79.9104 84.9502 81.7604 82.3802 84.3304 68.2702L92.6003 21.9502C95.1703 7.84018 93.8804 5.42018 84.9004 5.42018L85.4704 2.43018H115.4C140.2 2.43018 147.61 21.6702 143.48 45.1902C139.35 68.7102 125.09 87.9502 100.29 87.9502H70.3604L70.9304 84.9602V84.9502ZM93.8803 66.1402C91.3103 80.5402 92.1704 82.6702 100.72 82.6702H101.15C122.53 82.6702 129.8 61.8602 132.79 45.1802C135.78 28.5002 135.64 7.69018 114.26 7.69018H104.14L93.8803 66.1302V66.1402Z" fill="#E9E7E3" style="fill: rgb(233, 231, 227) !important;"/><path id="Vector_3" d="M142.05 84.9499C153.18 84.9499 154.79 82.5299 154.79 68.2699V21.9499C154.79 7.69992 153.18 5.41992 142.05 5.41992V2.41992H178.26V5.40992C167.13 5.40992 165.52 7.68992 165.52 21.9399V68.2599C165.52 82.5099 167.13 84.9399 178.26 84.9399V87.9299H142.05V84.9399V84.9499Z" fill="#E9E7E3" style="fill: rgb(233, 231, 227) !important;"/><path id="Vector_4" d="M178.39 84.9499C189.52 84.9499 191.13 82.5299 191.13 68.2699V21.9499C191.13 7.69992 189.52 5.41992 178.39 5.41992V2.41992H239.55L240.76 21.2299H237.94L237.27 18.3799C235.39 10.9699 234.05 7.68992 221.71 7.68992H201.86V40.0499H208.57C221.98 40.0499 224.13 38.3399 224.13 26.3699H226.95V59.0099H224.13C224.13 47.0399 221.98 45.3299 208.57 45.3299H201.86V66.1399C201.86 80.3899 203.47 82.6699 214.6 82.6699H226.13C238.47 82.6699 239.94 79.3899 241.69 71.8399L242.36 68.9899H245.18L244.11 87.9499H178.39V84.9599V84.9499Z" fill="#E9E7E3" style="fill: rgb(233, 231, 227) !important;"/><path id="Vector_5" d="M248.27 45.18C248.27 20.38 266.78 0 289.45 0C298.84 0 307.56 4.42 314.4 12.11C316.14 10.68 318.29 7.55 318.96 3.99H321.64V35.35H318.96C315.34 16.82 304.88 5.56 289.86 5.56C268.4 5.56 260.62 27.51 260.62 45.18C260.62 62.85 267.59 84.23 292.41 84.23C304.08 84.23 314.54 77.53 314.54 64.7C314.54 58.57 311.19 55.44 301.93 55.44V52.59H337.07V55.44C325.94 55.44 324.33 57.86 324.33 72.12V82.95C309.44 82.95 303.41 90.36 289.46 90.36C266.79 90.36 248.28 69.98 248.28 45.18H248.27Z" fill="#E9E7E3" style="fill: rgb(233, 231, 227) !important;"/><path id="Vector_6" d="M362.96 90.36C345.47 90.36 336.35 69.98 342.58 45.18C348.82 20.38 368.07 0 385.56 0C403.05 0 412.17 20.38 405.94 45.18C399.7 69.98 380.32 90.36 362.96 90.36ZM384.16 5.56C368.45 5.56 357.83 27.51 353.4 45.18C348.97 62.85 348.67 84.66 364.38 84.66C380.09 84.66 390.57 62.85 395 45.18C399.43 27.51 399.87 5.56 384.16 5.56Z" fill="#E9E7E3" style="fill: rgb(233, 231, 227) !important;"/><path id="Vector_7" d="M416.13 79.3898L418.7 68.8398C423.83 74.3998 432.38 80.5298 444.64 80.5298C454.76 80.5298 462.6 74.8298 462.6 65.5598C462.6 56.8698 458.32 52.0198 442.36 47.7398C426.25 43.4598 418.56 34.7698 418.56 22.7998C418.56 10.8298 428.53 0.569824 446.06 0.569824C455.89 0.569824 464.59 4.55982 469.29 8.40982L466.72 17.3898C461.02 13.2598 453.04 9.83982 446.05 9.83982C435.36 9.83982 429.23 14.8298 429.23 22.8098C429.23 28.9398 433.08 34.0698 446.48 37.6298C464.87 42.4798 473.28 50.4598 473.28 64.5698C473.28 81.2498 459.31 89.7998 444.63 89.7998C429.95 89.7998 420.83 84.2398 416.12 79.3998L416.13 79.3898Z" fill="#E9E7E3" style="fill: rgb(233, 231, 227) !important;"/><path id="Vector_8" d="M488.54 2.41992H540.28V11.9699H499.94V38.0499H533.15V47.5999H499.94V78.3899H540.28V87.9399H488.54V2.41992Z" fill="#E9E7E3" style="fill: rgb(233, 231, 227) !important;"/><path id="Vector_9" d="M556.95 2.41992H585.17C604.7 2.41992 613.11 13.6799 613.11 27.5099C613.11 38.6299 607.69 48.0299 595.44 51.3099L621.38 87.9399H608.12L583.6 52.5899H568.35V87.9399H556.95V2.41992ZM585.17 43.0399C598 43.0399 601.85 35.3399 601.85 27.4999C601.85 19.6599 598 11.9599 585.17 11.9599H568.35V43.0299H585.17V43.0399Z" fill="#E9E7E3" style="fill: rgb(233, 231, 227) !important;"/><path id="Vector_10" d="M631.35 2.41992H659.57C679.1 2.41992 687.51 13.6799 687.51 27.5099C687.51 38.6299 682.09 48.0299 669.84 51.3099L695.78 87.9399H682.52L658 52.5899H642.75V87.9399H631.35V2.41992ZM659.57 43.0399C672.4 43.0399 676.25 35.3399 676.25 27.4999C676.25 19.6599 672.4 11.9599 659.57 11.9599H642.75V43.0299H659.57V43.0399Z" fill="#E9E7E3" style="fill: rgb(233, 231, 227) !important;"/><path id="Vector_11" d="M734.25 2.41992H741.66L778.43 87.9399H766.74L756.48 63.9999H718.85L708.59 87.9399H697.47L734.25 2.41992ZM752.64 54.7299L737.67 19.5199L722.7 54.7299H752.63H752.64Z" fill="#E9E7E3" style="fill: rgb(233, 231, 227) !important;"/><path id="Vector_12" d="M789.55 2.41992H796.11L846.99 66.1299V2.41992H857.39V87.9399H850.83L799.95 24.2299V87.9399H789.55V2.41992Z" fill="#E9E7E3" style="fill: rgb(233, 231, 227) !important;"/><path id="Vector_13" d="M872.64 45.18C872.64 18.95 891.88 0 918.11 0C944.34 0 963.43 18.96 963.43 45.18C963.43 71.4 944.19 90.36 918.11 90.36C892.03 90.36 872.64 71.4 872.64 45.18ZM951.6 45.18C951.6 24.37 937.63 9.55 918.11 9.55C898.59 9.55 884.47 24.37 884.47 45.18C884.47 65.99 898.44 80.81 918.11 80.81C937.78 80.81 951.6 65.84 951.6 45.18Z" fill="#E9E7E3" style="fill: rgb(233, 231, 227) !important;"/><path id="Vector_14" d="M27.58 87.8801L27.21 82.9501C24.56 87.0601 19.36 89.0701 15.16 89.0701C6.85 89.0701 0 82.2201 0 72.2701C0 62.3201 6.85 55.5601 15.16 55.5601C19.18 55.5601 24.11 57.2901 26.85 61.2201V33.1001H33.52V87.8901H27.58V87.8801ZM6.67 72.3601C6.67 80.0301 11.69 83.9601 16.71 83.9601C21.37 83.9601 27.21 80.4901 27.21 72.3601C27.21 64.2301 21.37 60.6701 16.71 60.6701C11.69 60.6701 6.67 64.6901 6.67 72.3601Z" fill="#E9E7E3" style="fill: rgb(233, 231, 227) !important;"/><path id="Vector_15" d="M46.8204 69.8001V87.8801H40.1504V56.7401H46.0904L46.5504 62.1301C48.6504 58.6601 53.4004 55.5601 58.6904 55.5601V62.3201C52.7504 61.2201 46.8204 64.6001 46.8204 69.8101V69.8001Z" fill="#E9E7E3" style="fill: rgb(233, 231, 227) !important;"/></g></svg>