<svg class="brxe-svg" id="brxe-izngzu" xmlns="http://www.w3.org/2000/svg" width="553" height="134" viewBox="0 0 553 134" fill="none" style="fill: none !important;"><g id="doctor-diego-serrano-logotipo-horizontal" style="fill: none !important;"><g id="icono" style="fill: none !important;"><path id="Vector" d="M86.6356 70.2302L83.1116 66.7062C87.9304 61.8875 90.5834 55.4818 90.5834 48.6681C90.5834 41.8545 87.9304 35.4488 83.1116 30.6319C79.3394 26.8615 74.5187 24.3877 69.3229 23.5139V41.0106H64.3389V18.0725L66.9844 18.2359C74.3908 18.6924 81.3697 21.8429 86.6366 27.107C92.3963 32.8658 95.5683 40.5233 95.5683 48.6691C95.5683 56.8148 92.3953 64.4705 86.6356 70.2302Z" fill="#9A9A9B" style="fill: rgb(154, 154, 155) !important;"/><path id="Vector_2" d="M65.0719 115.069C57.2641 115.069 49.4544 112.097 43.507 106.156C31.6217 94.2646 31.6217 74.9185 43.5052 63.0284L47.031 66.5524C37.0892 76.4989 37.0892 92.6831 47.031 102.63C56.9785 112.57 73.1645 112.571 83.1101 102.63C88.2406 97.4992 91.0514 90.4156 90.8227 83.1959C90.6154 76.6651 87.9176 70.7924 83.2249 66.6607C81.9394 65.5283 79.9912 63.9601 77.7331 62.1434C62.4142 49.8184 47.5855 36.9668 49.1258 27.2052C49.6794 23.6933 52.1802 21.0655 56.5593 19.3945L58.3367 24.0509C54.4337 25.5407 54.1443 27.3779 54.0501 27.9818C52.83 35.7094 71.7605 50.9405 80.8575 58.2601C83.1623 60.114 85.1516 61.715 86.5192 62.9201C92.2556 67.9713 95.5527 75.1154 95.8029 83.0372C96.0755 91.6282 92.7336 100.054 86.6331 106.155C80.6923 112.097 72.8826 115.069 65.0719 115.069Z" fill="#414042" style="fill: rgb(65, 64, 66) !important;"/><path id="Vector_3" d="M66.1978 5.83164C98.4503 5.83164 124.948 30.8645 127.329 62.5206H132.327C129.936 28.1144 101.2 0.847656 66.1978 0.847656C31.1951 0.847656 2.45898 28.1144 0.0664062 62.5206H5.06346C7.4467 30.8655 33.9452 5.83164 66.1978 5.83164Z" fill="#414042" style="fill: rgb(65, 64, 66) !important;"/><path id="Vector_4" d="M127.33 71.7949C124.951 103.449 98.4523 128.484 66.1987 128.484C33.9452 128.484 7.44393 103.45 5.06443 71.7949H0.0673828C2.45716 106.2 31.1942 133.468 66.1987 133.468C101.202 133.468 129.938 106.2 132.328 71.7949H127.33Z" fill="#414042" style="fill: rgb(65, 64, 66) !important;"/></g><g id="texto" style="fill: none !important;"><g id="Group 105" style="fill: none !important;"><path id="Vector_5" d="M182.332 69.6416C177.243 69.6416 172.56 67.244 170.051 63.7942V63.6792L172.391 59.7019C174.202 62.331 177.711 64.3792 182.386 64.6725H183.911C187.947 64.6725 191.272 61.6885 191.272 57.6537C191.272 53.6189 188.115 51.9831 183.911 51.3406C183.034 51.1049 182.271 51.1049 181.162 50.9323C175.371 49.8198 170.166 46.4276 170.166 40.287C170.166 34.1507 175.134 29.0034 181.162 29.0034H182.039C186.075 29.0034 190.394 30.7585 192.558 33.5082L189.933 38.358C187.654 35.844 185.489 34.4425 182.039 34.2657H181.162C178.059 34.2657 175.488 37.073 175.488 40.287C175.488 43.3861 177.652 45.085 181.162 45.5508C182.616 45.7261 183.617 45.7836 184.024 45.8426C190.98 46.7783 196.246 50.7542 196.246 57.6537C196.246 64.4957 190.685 69.4662 183.911 69.6416H182.332Z" fill="#414042" style="fill: rgb(65, 64, 66) !important;"/><path id="Vector_6" d="M247.819 64.3214V69.7577H223.433V28.8306H247.526V34.323H229.047V46.8973H243.723V52.3322H229.047V64.3214H247.819Z" fill="#414042" style="fill: rgb(65, 64, 66) !important;"/><path id="Vector_7" d="M552.095 49.1757C552.095 60.4593 543.495 69.6989 532.153 69.6989C521.395 69.6989 512.742 60.4593 512.742 49.1757C512.742 37.9496 521.395 28.7717 532.153 28.7717C543.495 28.7717 552.095 37.9496 552.095 49.1757ZM546.481 49.1757C546.481 41.0486 540.339 34.4423 532.153 34.4423C524.492 34.4423 518.354 41.0486 518.354 49.1757C518.354 57.4178 524.492 64.0872 532.153 64.0872C540.339 64.0872 546.481 57.4178 546.481 49.1757Z" fill="#414042" style="fill: rgb(65, 64, 66) !important;"/><path id="Vector_8" d="M398.43 69.3343H392.229L409.947 28.2275L427.726 69.3343H421.351L409.947 43.3173L398.43 69.3343Z" fill="#414042" style="fill: rgb(65, 64, 66) !important;"/><path id="Vector_9" d="M484.446 29.0032V69.3341H478.007L460.059 38.4041V69.3341H454.562V28.4055H461.052L479.062 60.0945V29.0032H484.446Z" fill="#414042" style="fill: rgb(65, 64, 66) !important;"/><path id="Vector_10" d="M552.095 48.7521C552.095 60.0371 543.495 69.2767 532.153 69.2767C521.395 69.2767 512.739 60.0371 512.739 48.7521C512.739 37.526 521.395 28.3481 532.153 28.3481C543.495 28.3481 552.095 37.526 552.095 48.7521ZM546.481 48.7521C546.481 40.625 540.339 34.0187 532.153 34.0187C524.491 34.0187 518.354 40.625 518.354 48.7521C518.354 56.9956 524.491 63.6623 532.153 63.6623C540.339 63.6623 546.481 56.9956 546.481 48.7521Z" fill="#414042" style="fill: rgb(65, 64, 66) !important;"/><path id="Vector_11" d="M296.813 54.0311C300.671 51.4553 302.951 47.1891 302.951 42.5693C302.951 35.2012 296.992 29.0606 289.56 28.8306H286.987H277.871L277.81 69.7577H283.256V34.518L283.226 34.3847H289.214C293.719 34.3847 297.462 38.0645 297.462 42.5693C297.462 47.1288 293.719 50.8114 289.214 50.8114H286.943V56.3683H289.447L289.562 56.3108C290.145 56.3108 290.677 56.2519 291.2 56.1944L298.1 69.581L298.163 69.6988L304.478 69.6413L296.813 54.0311Z" fill="#414042" style="fill: rgb(65, 64, 66) !important;"/><path id="Vector_12" d="M357.035 54.0311C360.893 51.4553 363.171 47.1891 363.171 42.5693C363.171 35.2012 357.213 29.0606 349.782 28.8306H347.209H338.087L338.031 69.7577H343.512V34.518H343.529V34.3847H349.437C353.933 34.3847 357.672 38.0645 357.672 42.5693C357.672 47.1288 353.933 50.8114 349.437 50.8114H347.198V56.3683H349.667L349.782 56.3108C350.368 56.3108 350.892 56.2519 351.423 56.1944L358.323 69.581L358.373 69.6988L364.696 69.6413L357.035 54.0311Z" fill="#414042" style="fill: rgb(65, 64, 66) !important;"/></g><g id="Group 104" style="fill: none !important;"><path id="Vector_13" d="M191.489 98.3101H202.46V100.5H193.844V106.785H202.207V108.975H193.844V117.282H202.46V119.472H191.489V98.3101Z" fill="#808F8F" style="fill: rgb(128, 143, 143) !important;"/><path id="Vector_14" d="M224.486 102.435C223.644 100.976 222.637 100.132 220.838 100.132C218.958 100.132 217.331 101.481 217.331 103.417C217.331 105.24 219.211 106.082 220.64 106.727L222.043 107.345C224.794 108.551 227.123 109.926 227.123 113.293C227.123 116.998 224.151 119.832 220.474 119.832C217.078 119.832 214.552 117.644 213.878 114.361L216.181 113.715C216.488 115.876 218.145 117.645 220.417 117.645C222.692 117.645 224.769 115.904 224.769 113.519C224.769 111.05 222.832 110.208 220.868 109.31L219.577 108.749C217.108 107.627 214.974 106.364 214.974 103.332C214.974 100.05 217.752 97.9438 220.896 97.9438C223.255 97.9438 225.248 99.1504 226.37 101.228L224.486 102.435Z" fill="#808F8F" style="fill: rgb(128, 143, 143) !important;"/><path id="Vector_15" d="M244.604 119.47H242.247V100.5H237.139V98.3101H249.768V100.5H244.602L244.604 119.47Z" fill="#808F8F" style="fill: rgb(128, 143, 143) !important;"/><path id="Vector_16" d="M260.592 98.3096H271.565V100.5H262.95V106.785H271.313V108.975H262.95V117.281H271.565V119.471H260.592V98.3096ZM269.938 92.3879L265.644 96.7089L264.241 95.9233L267.578 91.3203L269.938 92.3879Z" fill="#808F8F" style="fill: rgb(128, 143, 143) !important;"/><path id="Vector_17" d="M289.609 119.47H287.25V100.5H282.142V98.3101H294.771V100.5H289.608V119.47H289.609Z" fill="#808F8F" style="fill: rgb(128, 143, 143) !important;"/><path id="Vector_18" d="M308.009 119.47H305.652V98.3101H308.009V119.47Z" fill="#808F8F" style="fill: rgb(128, 143, 143) !important;"/><path id="Vector_19" d="M336.86 102.94C335.178 101.2 332.849 100.133 330.407 100.133C325.691 100.133 321.874 104.231 321.874 108.888C321.874 113.547 325.718 117.645 330.461 117.645C332.848 117.645 335.176 116.522 336.86 114.838V117.756C335.038 119.075 332.791 119.833 330.547 119.833C324.568 119.833 319.519 114.977 319.519 108.973C319.519 102.911 324.486 97.9429 330.547 97.9429C332.904 97.9429 334.98 98.6163 336.86 100.019V102.94Z" fill="#808F8F" style="fill: rgb(128, 143, 143) !important;"/><path id="Vector_20" d="M352.429 113.462L349.873 119.468H347.292L357.058 97.2966L366.574 119.468H363.963L361.467 113.462H352.429ZM357.003 102.799L353.383 111.275H360.541L357.003 102.799Z" fill="#808F8F" style="fill: rgb(128, 143, 143) !important;"/><path id="Vector_21" d="M394.348 98.3101H398.332C401.503 98.3101 404.087 98.7309 406.582 100.863C408.997 102.94 410.093 105.775 410.093 108.917C410.093 112.004 408.969 114.727 406.64 116.803C404.113 119.049 401.587 119.469 398.277 119.469H394.348V98.3101ZM398.418 117.28C400.999 117.28 403.161 116.915 405.095 115.09C406.835 113.463 407.734 111.246 407.734 108.888C407.734 106.475 406.808 104.146 404.983 102.545C403.049 100.832 400.915 100.497 398.418 100.497H396.705V117.279L398.418 117.28Z" fill="#808F8F" style="fill: rgb(128, 143, 143) !important;"/><path id="Vector_22" d="M421.786 98.3101H432.76V100.5H424.144V106.785H432.507V108.975H424.144V117.282H432.76V119.472H421.786V98.3101Z" fill="#808F8F" style="fill: rgb(128, 143, 143) !important;"/><path id="Vector_23" d="M445.326 97.4106L461.83 114.699V98.3085H464.187V120.423L447.686 103.164V119.469H445.326V97.4106Z" fill="#808F8F" style="fill: rgb(128, 143, 143) !important;"/><path id="Vector_24" d="M482.62 119.47H480.26V100.5H475.152V98.3101H487.781V100.5H482.619L482.62 119.47Z" fill="#808F8F" style="fill: rgb(128, 143, 143) !important;"/><path id="Vector_25" d="M499.536 113.462L496.983 119.468H494.401L504.167 97.2966L513.68 119.468H511.072L508.574 113.462H499.536ZM504.111 102.799L500.489 111.275H507.646L504.111 102.799Z" fill="#808F8F" style="fill: rgb(128, 143, 143) !important;"/><path id="Vector_26" d="M526.752 117.28H532.588V119.47H524.393V98.3101H526.752V117.28Z" fill="#808F8F" style="fill: rgb(128, 143, 143) !important;"/></g><path id="Vector_27" d="M552.095 83.2571H170.051V84.66H552.095V83.2571Z" fill="#808F8F" style="fill: rgb(128, 143, 143) !important;"/></g></g></svg>